<svg xmlns="http://www.w3.org/2000/svg" viewBox="0 0 496 512" fill="currentColor">
  <path d="M165.9 397.4c0 2-2.3 3.6-5.2 3.6-2.9 0-5.2-1.6-5.2-3.6s2.3-3.6 5.2-3.6c2.9 0 5.2 1.6 5.2 3.6zM244 8C109.1 8 0 117.1 0 252c0 108.9 70.6 201.4 168.6 234.1 12.3 2.3 16.8-5.3 16.8-11.8v-41c-68.6 15-83-33.1-83-33.1-11.2-28.6-27.4-36.2-27.4-36.2-22.4-15.3 1.7-15 1.7-15 24.8 1.7 37.8 25.5 37.8 25.5 22 37.6 57.8 26.7 71.9 20.4 2.2-15.9 8.6-26.8 15.7-33-54.8-6.2-112.5-27.4-112.5-121.8 0-26.9 9.6-49 25.3-66.2-2.5-6.2-11-31.2 2.4-65.1 0 0 20.7-6.6 67.8 25.2A236.4 236.4 0 0 1 244 116.7a236.2 236.2 0 0 1 61.6 8.4c47-31.8 67.6-25.2 67.6-25.2 13.4 33.9 4.9 58.9 2.4 65.1 15.7 17.2 25.3 39.3 25.3 66.2 0 94.6-57.8 115.5-112.8 121.6 8.9 7.7 16.8 22.9 16.8 46.1v68.3c0 6.6 4.5 14.2 16.9 11.8C425.4 453.4 496 360.9 496 252 496 117.1 386.9 8 252 8z"></path>
</svg>
